# xmcd CD database file
#
# Track frame offsets:
#	150
#	188933
#	216288
#	246045
#	278162
#
# Disc length: 4284 seconds
#
# Revision: 2
# Processed by: cddbd v1.4b41PL1 Copyright (c) Steve Scherf et al.
# Submitted via: Feurio! 1.50.2ß - http://www.feurio.com
#
DISCID=4710ba05
DTITLE=Grateful Dead - Standing On The Moon Disc 2
DYEAR=1900
DGENRE=
TTITLE0=Dark Star-->Drums-->Space
TTITLE1=The Last Time
TTITLE2=Keepers
TTITLE3=Garcia/Saunders - It Takes A Lot To Laugh
TTITLE4=Garcia/Saunders - It's No Use
EXTD=
EXTT0=
EXTT1=
EXTT2=
EXTT3=
EXTT4=
PLAYORDER=
